Patient4_TMGait_0pt8_01_right_29_EMG.mot
version=1
nRows=37
nColumns=33
inDegrees=no
endheader
time	1LAddLong	2LGlutMax	3LGlutMed	4LIliopsoas	5LSemiMemb	6LBicFemLong	7LRecFem	8LVastMed	9LVastLat	10LGasMed	11LTibAnt	12lTibPost	13LPeroneusLong	14LSol	15LExtDigLong	16LFlexDigLong	17RAddLong	18RGlutMax	19RGlutMed	20RIliopsoas	21RSemiMemb	22RBicFemLong	23RRecFem	24RVastMed	25RVastLat	26RGasMed	27RTibAnt	28RTibPost	29RPeroneusLong	30RSol	31RExtDigLong	32RFlexDigLong
33.195	0.006561	0.21744	0.005341	-0.005493	0.18967	0.24307	-0.001068	-0.019073	-0.13779	0.029755	-0.13046	-0.033722	0.038757	-0.037689	-0.007324	-0.011749	0.00061	-0.1149	-0.26291	0.018463	0.30487	-0.021057	-0.64331	0.019379	-0.003815	0.019226	0.014038	0.014343	0.10025	0.13748	-0.000153	-0.01709
33.196	0.016327	0.27588	0.011749	-0.002289	0.1387	0.41412	0.003815	-0.012665	-0.17334	0.021362	-0.053406	-0.028076	0.056915	0.017548	0.018463	-0.00946	0.006256	-0.16922	-0.2623	0.10788	0.46066	0.23086	-0.63355	-0.023651	0.009308	0.012207	-0.024719	0.011597	0.090942	0.076904	-0.004883	-0.014954
33.197	0.014496	0.34256	-0.001373	0.009766	0.09491	0.37186	0.10574	-0.010529	-0.16922	0.00946	-0.003815	-0.037994	0.075226	0.078888	0.035553	-0.018005	-0.007782	-0.14771	-0.28427	0.1181	0.57556	0.33752	-0.64407	0.033722	-0.000153	-0.003662	0.076904	0.010376	-0.075531	0.14694	-0.008392	-0.017395
33.198	0.027924	0.46936	0.088196	0.026398	0.10727	0.29358	0.09201	-0.012207	-0.057831	0.019836	0.14648	-0.026703	0.029602	0.052185	0.061188	-0.004425	-0.010223	-0.20172	-0.32089	0.075989	0.66788	0.23819	-0.64179	0.021667	0.013885	-0.010223	0.31754	0.009155	-0.093842	0.21973	-0.004883	-0.019989
33.199	0.014496	0.57449	0.11643	0.017548	0.09552	0.42465	-0.015411	-0.010834	-0.00824	-0.007477	0.36102	-0.033417	0.028076	0.045013	0.069885	-0.007782	0.009003	-0.21286	-0.27985	-0.000916	0.61523	0.25513	-0.5571	-0.022736	0.019073	-0.007019	0.49759	0.00885	-0.16907	0.17227	-0.002441	-0.010681
33.2	0.006714	0.59952	0.069122	-0.008392	0.093231	0.4364	-0.08194	-0.004425	0.090485	-0.002441	0.28366	-0.024109	0.017395	0.072632	0.15686	-0.005951	0.007019	-0.26321	-0.21637	-0.10117	0.5806	0.27374	-0.57831	-0.000458	0.001526	-0.010681	0.80414	0.006866	-0.13428	0.082855	-0.007629	-0.009003
33.201	0.003967	0.62485	0.033417	-0.009918	0.077972	0.34622	-0.098724	0.007324	0.13992	-0.002899	0.065765	-0.027924	0.1091	0.092316	0.042877	-0.00885	-0.005646	-0.18829	-0.25589	-0.16815	0.53986	0.25238	-0.63339	-0.004272	-0.001678	0.001068	0.3598	0.010529	-0.043945	0.020752	-0.004578	-0.008698
33.202	-0.001984	0.62668	-0.00061	0.010376	0.045166	0.51758	-0.13992	0.023041	0.10284	-0.000916	-0.14099	-0.028992	0.16434	0.1088	0.096741	-0.003204	0.011139	-0.16342	-0.28763	-0.19318	0.48737	0.11154	-0.55817	-0.019226	-0.020599	0.014801	-0.86227	0.011597	0.062866	-0.072021	-0.003052	-0.000916
33.203	-0.001526	0.62653	0.01358	0.005646	-0.024109	0.4715	-0.12665	0.021515	0.062866	0.026398	-0.18433	-0.022278	0.067902	0.065002	0.2034	-0.002899	0.002136	-0.081635	-0.26382	-0.121	0.43198	-0.017853	-0.52582	-0.027618	0.001221	0.016632	-0.68207	0.000305	-0.10422	-0.16525	-0.003967	-0.000916
33.204	-0.021667	0.63248	0.009155	-0.001221	-0.10391	0.023651	-0.085602	0.00824	0.10635	0.042114	-0.076752	-0.029602	0.039368	0.028381	0.11307	-0.011292	-0.003662	-0.027618	-0.29556	0.063477	0.41031	-0.047913	-0.55588	-0.027008	0.011902	0.016785	-0.3035	0.008087	-0.12741	-0.16403	-0.001068	0.00061
33.205	-0.040741	0.72693	-0.058289	-0.002747	-0.177	0.25787	-0.023346	0.008698	0.090332	0.020142	0.071259	-0.017548	0.048676	0.097198	-0.00885	-0.013123	0.004578	-0.018921	-0.28473	0.20798	0.40436	-0.035095	-0.54611	-0.000153	0.005341	0.003204	-0.017242	0.00824	0.14221	-0.11261	-0.000763	-0.000305
33.206	-0.040131	0.7727	-0.073242	-0.003357	-0.27008	0.30151	-0.094147	0.015869	-0.073242	0.030823	0.085907	-0.023651	0.039368	0.10193	-0.1355	-0.013885	0.007019	-0.040894	-0.44693	0.28122	0.41245	-0.048828	-0.5397	-0.007324	0.007629	0.010529	-0.031128	0.002747	0.46036	-0.086365	-0.002747	0.001831
33.207	-0.007935	0.82275	-0.031738	0.006409	-0.23712	0.097504	-0.021973	0.004425	-0.081024	0.060272	0.18051	-0.019989	0.022736	0.062256	0.10117	-0.013428	0.007935	0.015106	-0.4451	0.17212	0.38605	-0.060883	-0.53055	-0.02594	0.02121	-0.008545	-0.20645	0.010223	-0.26504	-0.03006	-0.002899	0.001373
33.208	0.031128	0.87189	-0.030365	-0.010376	0.03952	-0.073853	0.027924	-0.005493	-0.16296	0.05188	0.14557	-0.019989	0.010376	0.084534	0.27176	-0.008545	0.019989	0.037994	-0.36591	0.060883	0.33188	-0.033112	-0.51758	-0.010681	0.024109	-0.010986	-0.39917	0.005188	-1.1201	-0.018768	-0.001831	-0.002594
33.209	0.064697	0.84854	0.045929	-0.012207	0.26062	-0.094147	0.056305	-0.000458	-0.16937	0.04425	-0.057068	-0.016174	0.007935	0.12695	0.4303	-0.002136	0.003357	0.071869	-0.20462	0.021515	0.30426	0.048065	-0.55206	0.014954	0.012512	-0.005951	-0.37247	0.004425	-1.3327	-0.067596	-0.004272	-0.00824
33.21	0.067749	0.82855	0.039215	-0.032806	0.24109	-0.22583	0.12024	-0.012207	-0.1828	0.015259	0.13275	-0.029144	0.015564	0.13123	-0.50049	0.007935	-0.00061	0.10208	-0.11765	-0.013428	0.36514	0.1416	-0.47775	0.002136	0.02182	0.007019	-0.38116	0.007935	-0.50384	-0.2298	-0.000916	-0.001831
33.211	0.053101	0.78018	0.008545	0.001526	0.15854	-0.29587	0.11002	-0.018158	-0.14618	-0.003967	-0.032501	-0.016327	0.13626	0.11505	-0.14984	-0.012207	0.010986	0.069275	-0.12817	-0.087433	0.44388	0.15518	-0.45822	-0.033875	0.016174	0.015869	-0.33783	0.007629	1.3591	-0.25803	0.000153	-0.012054
33.212	0.039368	0.77927	0.074005	0.023651	0.10254	-0.035858	0.05661	0.005035	0.07309	-0.063782	-0.10346	-0.015106	0.30075	0.13626	-0.40726	0.010223	0.000763	0.18875	-0.18524	-0.080414	0.42435	0.10101	-0.4335	-0.03067	-0.005188	0.007935	0.1265	0.005035	1.7204	-0.16846	-0.001831	-0.01236
33.213	0.025787	0.70496	0.06134	0.021515	0.11169	0.096283	-0.020447	0.017548	0.15045	-0.029449	-0.32303	-0.011444	0.31845	0.053406	-0.00824	-0.005798	0.005646	0.16907	-0.15961	-0.016479	0.401	0.062256	-0.42084	-0.058441	0.00412	0	0.90668	0.005798	0.89722	-0.21133	-0.006409	-0.007477
33.214	0.015869	0.61066	0.10071	0.023804	0.11185	0.046539	-0.078735	0.032654	0.30136	-0.010376	-0.27603	-0.00946	0.19974	-0.027618	-0.088043	-0.003815	0.022583	0.1416	-0.20554	0.007019	0.36652	-0.003662	-0.41107	-0.090637	-0.028992	-0.00061	1.4337	0.00473	-1.0147	-0.29388	-0.004425	-0.010529
33.215	0.00885	0.47607	0.07309	0.049744	0.078583	-0.17227	-0.15823	0.031738	0.35217	0.004883	-0.19959	-0.014343	0.11856	-0.080719	0.12161	-0.027466	0.028381	0.14191	-0.28381	0.010071	0.33035	-0.059662	-0.44968	-0.045471	-0.009613	0.008087	1.105	0.007477	-0.34302	-0.20554	-0.001068	-0.014648
33.216	0.007935	0.40283	0.065002	0.012817	0.065613	-0.37262	-0.13229	0.013428	0.39948	0.026855	-0.041351	-0.014648	0.09613	-0.17319	-0.45334	-0.019073	0.002136	0.11429	-0.27542	-0.020294	0.32852	-0.061951	-0.42297	-0.06546	0.00061	0.012512	-0.50308	0.00473	-0.3392	-0.13504	-0.003815	-0.007172
33.217	0.009613	0.35919	0.014954	0.007019	0.070496	-0.28214	-0.12085	0.021667	0.23025	-0.02533	0.040894	-0.007935	0.22553	-0.20783	-0.26703	-0.030212	0.004883	0.18417	-0.24689	-0.027313	0.32669	-0.084991	-0.42999	-0.032043	0.015869	0.02182	-1.3126	0.005493	-0.75409	-0.15854	-0.000458	-0.007935
33.218	-0.001068	0.25559	-0.055389	-0.001373	0.062714	-0.1088	-0.013123	0.023804	0.11444	-0.003967	-0.015106	-0.014191	0.26855	-0.13046	-0.14603	0.004272	0.018921	0.12283	-0.21011	-0.017548	0.30167	-0.1326	-0.4393	-0.037231	0.029602	0.006561	-0.89279	0.003357	-0.53772	0.051727	-0.003357	-0.009155
33.219	-0.007019	0.10971	-0.1088	0.009003	0.018158	0.18631	0.072784	0.041809	-0.031738	0.017548	-0.083618	-0.000458	0.15198	-0.049438	-0.34805	-0.009918	0.003052	0.21423	-0.24033	-0.005951	0.30243	-0.084534	-0.43274	-0.044708	0.034027	-0.007324	-0.32044	-0.000305	-0.34515	0.17151	-0.004425	-0.009308
33.22	-0.023499	0.032349	-0.11566	-0.006409	-0.039215	0.24872	0.15091	0.034332	-0.27451	0.025787	-0.094299	-0.002594	0.1619	-0.04776	-0.24338	-0.01297	-0.02655	0.15411	-0.16312	-0.000458	0.28809	0.032654	-0.43976	-0.041351	0.041504	-0.003052	-0.12726	0.001221	0.050049	0.20218	-0.002594	-0.007477
33.221	-0.016785	-0.048065	-0.13443	-0.003052	-0.073853	0.25375	0.26962	0.022736	-0.49377	0.033875	-0.042267	0.005646	0.14526	-0.028076	-0.045319	0.004425	-0.033875	0.098877	-0.073547	-0.007324	0.26199	0.03418	-0.42282	0.000763	0.067444	-0.001678	-0.29144	0.001526	0.40604	0.26642	-0.007019	-0.009155
33.222	-0.019379	0.006866	-0.24597	-0.009766	-0.10635	0.28793	0.21103	0.001526	-0.634	0.032196	0.007324	-0.000305	0.37338	-0.044098	-0.036774	-0.001068	-0.015717	0.20096	-0.16129	0.018768	0.23499	0.005188	-0.43137	-0.018005	0.064697	0.006409	-0.32333	0.000153	-0.10178	0.26901	-0.005951	-0.01358
33.223	-0.008392	0.00946	-0.20706	-0.013275	-0.063171	0.31342	0.11078	-0.012817	-0.68893	0.020294	0.016174	0.00412	0.46783	-0.041809	0.031433	0.00061	-0.032349	0.24399	-0.14816	-0.007324	0.24262	0.043335	-0.34851	-0.045624	0.053558	0.000458	-0.042419	0.005951	-0.69229	0.28336	-0.000153	-0.011139
33.224	0.009766	-0.022888	0.040436	0.006561	-0.020447	0.12848	0.020294	-0.024109	-0.51361	0.001984	0.028076	0.016632	0.057526	0.062561	0.46616	0.000153	-0.071259	0.18692	-0.17395	0	0.22369	0.062256	-0.38055	-0.038452	0.04303	-0.002899	-0.057373	-0.005646	0.5452	0.16327	-0.00412	-0.010529
33.225	0.006714	-0.041656	0.20645	0.007935	0.045319	-0.33371	0.038605	-0.022888	-0.25818	0.030975	0.12711	0.024872	-0.32684	0.07843	0.31082	-0.000153	-0.065613	0.20645	-0.17792	0.016174	0.2298	0.065765	-0.33768	-0.073547	0.033417	-0.004883	-0.037537	-0.001068	0.67551	0.17105	-0.004425	-0.013123
33.226	-0.007629	-0.069885	0.13443	0.001526	0.0354	-0.46722	0.00351	-0.024414	-0.017395	0.050812	0.12161	0.031281	-0.47806	0.000458	0.21851	-0.005188	-0.051422	0.13947	-0.17425	0.063629	0.19226	-0.057526	-0.32196	-0.080719	0.012207	-0.001221	-0.006104	-0.001526	0.28778	0.18753	-0.005493	-0.017242
33.227	-0.013123	-0.05188	0.080872	0.01236	0.006104	-0.38986	0.026093	-0.02594	0.17868	0.020294	0.12177	0.034332	-0.28473	0.039063	0.49789	0.016937	-0.031433	0.13199	-0.1799	0.08316	0.19241	-0.22308	-0.30045	-0.084991	0.001831	0.00473	0.098724	-0.007172	0.26337	0.093231	-0.004578	-0.012665
33.228	-0.037689	-0.054321	-0.035858	0.004883	-0.033569	-0.23346	0.099792	-0.006866	0.2919	-0.043793	-0.06012	0.040436	-0.092621	0.056458	-0.069733	0.014801	0.010223	0.11597	-0.2214	0.073395	0.1857	-0.31387	-0.27496	-0.068665	0.003662	-0.00351	0.10101	-0.00473	0.31525	0.008392	-0.001068	-0.017242
33.229	-0.043945	-0.099945	-0.024414	-0.019073	-0.10437	0.054474	0.13382	-0.002899	0.34424	-0.030975	-0.21423	0.050812	0.3656	-0.01236	0.14389	0.018463	0.023651	0.20966	-0.16113	0.036163	0.14114	-0.17395	-0.29343	-0.091858	0.018311	0.001221	0.097961	-0.007477	0.22186	-0.061493	-0.001831	-0.018768
33.23	-0.041656	-0.18524	-0.06073	-0.01297	-0.17593	0.17075	0.12222	-0.000916	0.33936	-0.016785	-0.11169	0.050049	0.24719	-0.010681	0.17975	0.010986	0.014191	0.18158	-0.092468	-0.036163	0.19073	0.071259	-0.31632	-0.013428	0.010834	0.002747	0.19455	-0.004425	0.1947	-0.005646	-0.000916	-0.026245
33.231	-0.021362	-0.27603	-0.004272	-0.007324	-0.20447	0.17624	0.10117	-0.028992	0.11063	0.03952	0.11932	0.064697	-0.098267	0.11841	0.1619	0.001373	0.042114	0.17075	0.003357	-0.11108	0.21622	0.048676	-0.22018	-0.0383	-0.003357	-0.007629	0.16205	-0.008087	0.20111	0.030212	0.000153	-0.026093
